<?xml version="1.0" encoding="UTF-8"?>
<!DOCTYPE svg PUBLIC "-//W3C//DTD SVG 1.1//EN" "http://www.w3.org/Graphics/SVG/1.1/DTD/svg11.dtd">
<!-- Creator: CorelDRAW X7 -->
<svg xmlns="http://www.w3.org/2000/svg" xml:space="preserve" width="13.5466mm" height="5.9266mm" version="1.1" style="shape-rendering:geometricPrecision; text-rendering:geometricPrecision; image-rendering:optimizeQuality; fill-rule:evenodd; clip-rule:evenodd"
viewBox="0 0 1355 593"
 xmlns:xlink="http://www.w3.org/1999/xlink">
 <defs>
  <style type="text/css">
   <![CDATA[
    .fil0 {fill:#898989;fill-rule:nonzero}
    .fil2 {fill:#E22227;fill-rule:nonzero}
    .fil1 {fill:#2873B9;fill-rule:nonzero}
   ]]>
  </style>
 </defs>
 <g id="Layer_x0020_1">
  <metadata id="CorelCorpID_0Corel-Layer"/>
  <polygon class="fil0" points="701,503 768,503 768,523 701,523 "/>
  <path class="fil1" d="M188 476c-4,-8 -16,-15 -30,-15 -18,0 -26,8 -26,17 0,12 13,15 28,16 27,4 51,11 51,41 0,29 -25,41 -53,41 -26,0 -46,-8 -56,-32l20 -10c6,14 21,20 36,20 15,0 29,-5 29,-19 0,-12 -12,-17 -29,-19 -26,-3 -50,-10 -50,-38 0,-27 26,-37 49,-38 20,0 41,6 50,26l-19 10z"/>
  <path class="fil1" d="M342 556c-13,13 -30,19 -48,19 -47,0 -68,-32 -68,-65 0,-34 22,-68 68,-68 17,0 34,7 47,20l-16 15c-9,-8 -20,-12 -31,-12 -31,0 -44,23 -44,45 0,21 12,43 44,43 11,0 24,-5 32,-13l16 16z"/>
  <path class="fil1" d="M407 472l-23 54 47 0 -24 -54zm34 76l-67 0 -11 24 -26 0 57 -127 27 0 57 127 -26 0 -11 -24z"/>
  <polygon class="fil1" points="487,572 487,445 578,445 578,468 511,468 511,503 575,503 575,525 511,525 511,572 "/>
  <polygon class="fil1" points="595,572 595,445 687,445 687,468 619,468 619,503 683,503 683,525 619,525 619,572 "/>
  <path class="fil0" d="M899 556c-13,13 -30,19 -48,19 -48,0 -68,-32 -68,-65 0,-34 22,-68 68,-68 17,0 33,7 46,20l-16 15c-8,-8 -19,-12 -30,-12 -31,0 -44,23 -44,45 0,21 12,43 44,43 11,0 23,-5 32,-13l16 16z"/>
  <polygon class="fil0" points="1008,572 912,572 912,445 1008,445 1008,468 936,468 936,498 1005,498 1005,520 936,520 936,549 1008,549 "/>
  <path class="fil0" d="M1051 467l0 41 36 0c16,0 22,-10 22,-20 0,-11 -7,-21 -22,-21l-36 0zm89 105l-29 0 -37 -42 -23 0 0 42 -24 0 0 -127c20,0 40,0 60,0 30,0 46,20 46,42 0,18 -8,35 -32,40l39 44 0 1z"/>
  <polygon class="fil0" points="1188,467 1148,467 1148,445 1253,445 1253,467 1212,467 1212,572 1188,572 "/>
  <path class="fil2" d="M608 217l-25 -35c8,12 16,23 25,35z"/>
  <path class="fil0" d="M831 283c-9,7 -18,13 -27,20 9,14 17,29 25,44 -27,0 -55,0 -83,0 -6,-8 -13,-15 -17,-24 13,-26 29,-50 43,-76 6,11 12,22 19,33 9,-7 18,-14 27,-21 -15,-26 -30,-53 -46,-79 -27,49 -56,96 -83,145 11,18 25,35 37,52l2 0 131 0c5,0 10,0 14,0l12 0c-17,-32 -36,-63 -54,-94z"/>
  <path class="fil1" d="M702 247c18,-31 35,-62 54,-93 -6,-14 -60,-106 -79,-137 -31,55 -63,110 -94,165l65 91 -40 70c-26,1 -53,0 -80,0l63 -109 -21 -30c-34,57 -66,116 -101,173 53,0 106,0 158,0 16,-30 62,-107 62,-107l-66 -89c17,-33 37,-64 54,-97l40 70 -37 63c7,10 15,20 22,30z"/>
 </g>
</svg>
